<svg xmlns="http://www.w3.org/2000/svg" width="38" height="38" fill="none" xmlns:v="https://vecta.io/nano">
  <path
    d="M7.11 31.009C.669 24.446.669 13.75 7.11 7.187 13.552.746 24.004.624 30.567 6.944l.365.243.608.608-2.674 2.674-.608-.608A13.063 13.063 0 1 0 9.784 28.335c4.983 4.983 13.126 5.105 18.231.243l.243-.243.608-.608 2.674 2.674-.608.608c-6.563 6.563-17.258 6.563-23.821 0zm19.933-18.718l2.674 2.674-12.761 12.883-6.684-6.684 2.795-2.674 3.889 4.011 10.088-10.209z"
    fill="#12b0ee" />
</svg>